<svg xmlns="http://www.w3.org/2000/svg" xmlns:xlink="http://www.w3.org/1999/xlink" id="Layer_1" data-name="Layer 1" width="10.99" height="1.746" viewBox="0 0 10.99 1.746"><defs><style> .cls-121 { fill: #bfbebe; } .cls-222 { fill: url(#gradient1); } .cls-323 { fill: #b2b3b2; } </style><linearGradient id="gradient1" y1="0.873" x2="4.63" y2="0.873" gradientUnits="userSpaceOnUse"><stop offset="0" stop-color="#f0efef"></stop><stop offset="1" stop-color="#b2b3b2"></stop></linearGradient></defs><g><g><path class="cls-121" d="M5.835.783V.148h.271V.234h-.18V.427h.157V.512H5.926V.783Z"></path><path class="cls-121" d="M6.16.3A.165.165,0,0,1,6.173.23.148.148,0,0,1,6.209.181.139.139,0,0,1,6.258.153a.154.154,0,0,1,.109,0,.165.165,0,0,1,.05.028A.144.144,0,0,1,6.451.23.165.165,0,0,1,6.465.3V.633A.16.16,0,0,1,6.451.7a.127.127,0,0,1-.034.047.156.156,0,0,1-.159.03.144.144,0,0,1-.049-.03A.131.131,0,0,1,6.173.7.16.16,0,0,1,6.16.633Zm.091.335a.061.061,0,0,0,.018.049A.067.067,0,0,0,6.312.7.07.07,0,0,0,6.356.682.061.061,0,0,0,6.374.633V.3A.059.059,0,0,0,6.356.25.065.065,0,0,0,6.312.234.062.062,0,0,0,6.269.25.059.059,0,0,0,6.251.3Z"></path><path class="cls-121" d="M6.54.3A.165.165,0,0,1,6.553.23.148.148,0,0,1,6.589.181.144.144,0,0,1,6.637.153a.152.152,0,0,1,.055-.01.149.149,0,0,1,.055.01A.165.165,0,0,1,6.8.181.159.159,0,0,1,6.831.23.165.165,0,0,1,6.845.3V.633A.16.16,0,0,1,6.831.7.139.139,0,0,1,6.8.749a.159.159,0,0,1-.1.04.178.178,0,0,1-.055-.01.15.15,0,0,1-.048-.03A.131.131,0,0,1,6.553.7.16.16,0,0,1,6.54.633Zm.091.335a.061.061,0,0,0,.018.049A.067.067,0,0,0,6.692.7.065.065,0,0,0,6.735.682.059.059,0,0,0,6.754.633V.3A.057.057,0,0,0,6.735.25.06.06,0,0,0,6.692.234.062.062,0,0,0,6.649.25.059.059,0,0,0,6.631.3Z"></path><path class="cls-121" d="M6.925.783V.148H7.06a.159.159,0,0,1,.119.043.17.17,0,0,1,.04.121v.3a.176.176,0,0,1-.043.132.171.171,0,0,1-.124.042ZM7.016.234V.7h.042a.067.067,0,0,0,.054-.02.088.088,0,0,0,.016-.06V.312A.094.094,0,0,0,7.113.255.063.063,0,0,0,7.058.234Z"></path><path class="cls-121" d="M7.43.783,7.571.148h.076l.142.635H7.7L7.671.647H7.547L7.521.783ZM7.654.561,7.61.331h0l-.045.23Z"></path><path class="cls-121" d="M7.833.783V.148h.091V.692h.181V.783Z"></path><path class="cls-121" d="M8.163.783V.148h.091V.692h.18V.783Z"></path><path class="cls-121" d="M8.493.783V.148h.271V.234h-.18V.42h.157V.506H8.584V.692h.18V.783Z"></path><path class="cls-121" d="M8.823.783V.148h.146c.107,0,.161.063.161.187A.227.227,0,0,1,9.112.43a.128.128,0,0,1-.061.063l.1.29h-.1L8.968.512H8.914V.783ZM8.914.234v.2h.052A.081.081,0,0,0,9,.425.046.046,0,0,0,9.026.406a.081.081,0,0,0,.01-.031.258.258,0,0,0,0-.042.258.258,0,0,0,0-.042.093.093,0,0,0-.01-.032A.073.073,0,0,0,8.961.234Z"></path><path class="cls-121" d="M9.2.3A.165.165,0,0,1,9.211.23.148.148,0,0,1,9.247.181.144.144,0,0,1,9.3.153.152.152,0,0,1,9.35.143a.166.166,0,0,1,.1.038A.146.146,0,0,1,9.489.23.165.165,0,0,1,9.5.3V.33H9.412V.3A.057.057,0,0,0,9.393.25a.066.066,0,0,0-.086,0A.059.059,0,0,0,9.289.3V.633a.061.061,0,0,0,.018.049.066.066,0,0,0,.086,0A.059.059,0,0,0,9.412.633V.514H9.339V.434H9.5v.2A.16.16,0,0,1,9.489.7a.129.129,0,0,1-.035.047A.154.154,0,0,1,9.4.779a.172.172,0,0,1-.055.01A.178.178,0,0,1,9.3.779a.15.15,0,0,1-.048-.03A.131.131,0,0,1,9.211.7.16.16,0,0,1,9.2.633Z"></path><path class="cls-121" d="M9.668.783V.515L9.543.148h.1L9.712.4h0L9.787.148h.1L9.758.515V.783Z"></path><path class="cls-121" d="M6.13,1.2H6.039v-.02a.1.1,0,0,0-.015-.054.067.067,0,0,0-.08-.016.066.066,0,0,0-.019.018.08.08,0,0,0-.009.026.155.155,0,0,0,0,.031v.031a.056.056,0,0,0,.007.023.064.064,0,0,0,.016.017.179.179,0,0,0,.028.014l.069.027a.162.162,0,0,1,.049.028.1.1,0,0,1,.03.036.169.169,0,0,1,.013.048.554.554,0,0,1,0,.062.352.352,0,0,1-.008.075A.163.163,0,0,1,6.1,1.6a.125.125,0,0,1-.049.039.168.168,0,0,1-.074.015.159.159,0,0,1-.062-.012.149.149,0,0,1-.049-.032.155.155,0,0,1-.032-.048A.145.145,0,0,1,5.818,1.5V1.469h.09V1.5a.076.076,0,0,0,.015.045.06.06,0,0,0,.05.02.088.088,0,0,0,.036-.007.052.052,0,0,0,.02-.019.066.066,0,0,0,.008-.03l0-.039c0-.016,0-.03,0-.041A.081.081,0,0,0,6.03,1.4a.052.052,0,0,0-.017-.016l-.027-.013-.065-.027a.142.142,0,0,1-.079-.064.247.247,0,0,1-.01-.167.145.145,0,0,1,.029-.055.135.135,0,0,1,.048-.037.16.16,0,0,1,.069-.014.141.141,0,0,1,.062.013.151.151,0,0,1,.049.033.138.138,0,0,1,.041.1Z"></path><path class="cls-121" d="M6.486,1.467v.04a.129.129,0,0,1-.011.055.148.148,0,0,1-.031.047.139.139,0,0,1-.046.033.131.131,0,0,1-.056.012.249.249,0,0,1-.053-.007.138.138,0,0,1-.048-.025.148.148,0,0,1-.035-.046A.168.168,0,0,1,6.192,1.5v-.35A.162.162,0,0,1,6.2,1.1a.141.141,0,0,1,.03-.046.154.154,0,0,1,.047-.031.164.164,0,0,1,.06-.011.136.136,0,0,1,.1.042.146.146,0,0,1,.031.049.151.151,0,0,1,.011.061V1.2H6.4v-.03a.073.073,0,0,0-.015-.046.05.05,0,0,0-.041-.02.047.047,0,0,0-.045.021.119.119,0,0,0-.011.053V1.5a.085.085,0,0,0,.012.046.048.048,0,0,0,.043.019l.019,0a.078.078,0,0,0,.02-.011A.057.057,0,0,0,6.39,1.53a.077.077,0,0,0,0-.032V1.467Z"></path><path class="cls-121" d="M6.563,1.648V1.013h.091v.635Z"></path><path class="cls-121" d="M6.742,1.648V1.013h.271V1.1h-.18v.186H6.99v.086H6.833v.186h.18v.091Z"></path><path class="cls-121" d="M7.068,1.648V1.013h.088l.137.383h0V1.013h.091v.635H7.3l-.139-.381h0v.381Z"></path><path class="cls-121" d="M7.757,1.467v.04a.146.146,0,0,1-.011.055.167.167,0,0,1-.031.047.15.15,0,0,1-.046.033.135.135,0,0,1-.057.012.24.24,0,0,1-.052-.007.138.138,0,0,1-.048-.025.15.15,0,0,1-.036-.046A.169.169,0,0,1,7.463,1.5v-.35a.161.161,0,0,1,.01-.058A.129.129,0,0,1,7.5,1.05a.149.149,0,0,1,.046-.031.17.17,0,0,1,.061-.011.139.139,0,0,1,.1.042.164.164,0,0,1,.031.049.17.17,0,0,1,.011.061V1.2H7.666v-.03a.073.073,0,0,0-.015-.046A.05.05,0,0,0,7.61,1.1a.045.045,0,0,0-.045.021.107.107,0,0,0-.012.053V1.5a.078.078,0,0,0,.013.046.048.048,0,0,0,.043.019l.019,0a.072.072,0,0,0,.019-.011A.046.046,0,0,0,7.66,1.53.076.076,0,0,0,7.666,1.5V1.467Z"></path><path class="cls-121" d="M7.831,1.648V1.013H8.1V1.1h-.18v.186h.157v.086H7.922v.186H8.1v.091Z"></path><path class="cls-121" d="M8.329,1.648V1.013H8.42v.635Z"></path><path class="cls-121" d="M8.505,1.648V1.013h.087L8.73,1.4h0V1.013h.091v.635H8.737L8.6,1.267h0v.381Z"></path><path class="cls-121" d="M8.907,1.648V1.013H9v.635Z"></path><path class="cls-121" d="M9.146,1.648V1.1H9.041V1.013h.3V1.1H9.237v.549Z"></path><path class="cls-121" d="M9.385,1.648V1.013h.091v.635Z"></path><path class="cls-121" d="M9.523,1.648l.142-.635h.076l.141.635H9.791l-.026-.136H9.641l-.027.136Zm.225-.222L9.7,1.2h0l-.044.23Z"></path><path class="cls-121" d="M9.938,1.648V1.1H9.832V1.013h.3V1.1h-.105v.549Z"></path><path class="cls-121" d="M10.177,1.648V1.013h.091v.635Z"></path><path class="cls-121" d="M10.664,1.013l-.13.635h-.08l-.129-.635h.1l.072.444h0l.073-.444Z"></path><path class="cls-121" d="M10.719,1.648V1.013h.271V1.1h-.18v.186h.157v.086H10.81v.186h.18v.091Z"></path></g><path class="cls-222" d="M3.413.7C3.169.6,3.068.534,3.068.392s.115-.228.281-.228a.384.384,0,0,1,.376.23l.017.033L3.775.409,3.792.4l.02-.012,0-.023-.022-.2V.153L3.776.144A.62.62,0,0,0,3.361.019a.457.457,0,0,0-.517.439c0,.256.209.369.441.472.252.108.38.194.38.36a.3.3,0,0,1-.33.292.524.524,0,0,1-.454-.3l-.015-.027-.029.011-.019.007-.028.01,0,.029.038.233,0,.012.01.009a.8.8,0,0,0,.486.158A.509.509,0,0,0,3.9,1.238C3.9.926,3.668.8,3.413.7Zm1.138.84c0-.065,0-.278,0-.665s0-.6,0-.667c0-.048.012-.059.05-.072L4.63.123,4.624.093l0-.012L4.615.049l-.032,0c-.046,0-.114.007-.163.007S4.3.057,4.256.053l-.033,0L4.217.081l0,.012L4.209.122l.027.011c.039.016.05.026.051.075s0,.275,0,.665,0,.6,0,.665c0,.049-.012.059-.051.075l-.027.011.008.041.006.032.033,0a1.575,1.575,0,0,1,.164-.007c.049,0,.117,0,.163.007l.032,0,.007-.032,0-.012.006-.029L4.6,1.613C4.563,1.6,4.553,1.587,4.551,1.538Zm-4.209,0c0-.057,0-.205,0-.395V1.108h0V.916H.981L.991.9,1.058.771,1.086.718H.981L.972.725A.556.556,0,0,1,.683.783H.337V.558c0-.153,0-.286,0-.367C.465.188.584.186.653.186A1.3,1.3,0,0,1,.934.215a.584.584,0,0,1,.123.044l.008,0h.066l.01-.02L1.2.111,1.228.06H.259c-.1,0-.165,0-.212-.007l-.033,0L.008.081l0,.012L0,.122.027.133c.04.016.05.026.052.075s0,.275,0,.665,0,.6,0,.665c0,.049-.012.059-.052.075L0,1.624l.005.028,0,.014L.014,1.7.049,1.7a1.274,1.274,0,0,1,.16-.009c.049,0,.122,0,.165.007l.032,0,.007-.032.008-.041L.393,1.613C.354,1.6.344,1.587.342,1.538ZM2.55,1.494c-.137-.268-.5-1.037-.68-1.437L1.861.036h-.08l-.01.021c-.206.47-.532,1.147-.686,1.457a.179.179,0,0,1-.107.1l-.031.01.006.031,0,.012L.962,1.7l.033,0a1.268,1.268,0,0,1,.143-.007,1.1,1.1,0,0,1,.147.009l.034.005.006-.035,0-.014.005-.03L1.3,1.612c-.027-.009-.042-.018-.047-.029a.087.087,0,0,1,.009-.059c.03-.073.078-.182.134-.309L1.406,1.2h.722c.08.174.135.294.158.348.012.025.01.033.009.036s-.009.012-.045.025l-.033.012.011.033,0,.015.009.027.029,0c.072-.008.16-.009.2-.009.062,0,.132,0,.187.007l.031,0,.007-.031,0-.012L2.7,1.621l-.031-.009A.234.234,0,0,1,2.55,1.494ZM1.468,1.058c.1-.236.214-.479.292-.646.076.161.19.405.3.646Z"></path><path class="cls-323" d="M5.274,0c.019.146.033.291.039.437,0,.072.006.145.009.218l0,.218c0,.146,0,.291-.012.437s-.02.291-.039.436H5.268l0-.873,0-.873Z"></path></g></svg>